<svg width="39" height="38" viewBox="0 0 39 38" fill="none" xmlns="http://www.w3.org/2000/svg">
<path d="M36.8702 6.33334H34.0836V4.94C34.0836 4.77111 34.0202 4.62334 33.8936 4.49667C33.7669 4.37 33.6191 4.30667 33.4502 4.30667C30.6636 4.30667 28.3836 4.43334 26.6102 4.68667C25.1747 4.85556 23.528 5.19334 21.6702 5.7V5.57334C21.6702 4.81334 21.4169 4.18 20.9102 3.67334C20.4036 3.16667 19.7702 2.91334 19.0102 2.91334C18.2502 2.91334 17.6169 3.16667 17.1102 3.67334C16.6036 4.18 16.3502 4.81334 16.3502 5.57334V5.7C14.4924 5.19334 12.8458 4.85556 11.4102 4.68667C9.63689 4.43334 7.35689 4.30667 4.57022 4.30667C4.40133 4.30667 4.25355 4.37 4.12689 4.49667C4.00022 4.62334 3.93689 4.77111 3.93689 4.94V6.33334H1.15022C0.981332 6.33334 0.854666 6.39667 0.770221 6.52334C0.685777 6.65 0.643555 6.79778 0.643555 6.96667V32.5533C0.643555 32.7222 0.685777 32.87 0.770221 32.9967C0.854666 33.1233 0.981332 33.1867 1.15022 33.1867H15.8436C15.8436 33.7778 16.0336 34.2422 16.4136 34.58C16.7936 34.9178 17.2369 35.0867 17.7436 35.0867H20.2769C20.868 35.0867 21.3324 34.9178 21.6702 34.58C22.008 34.2422 22.1769 33.7778 22.1769 33.1867H36.8702C37.0391 33.1867 37.1658 33.1233 37.2502 32.9967C37.3347 32.87 37.3769 32.7222 37.3769 32.5533V6.96667C37.3769 6.79778 37.3347 6.65 37.2502 6.52334C37.1658 6.39667 37.0391 6.33334 36.8702 6.33334ZM32.9436 5.44667V29.1333C27.2013 29.1333 22.768 29.8933 19.6436 31.4133V23.56H31.1702C31.4236 23.56 31.5924 23.4967 31.6769 23.37C31.7613 23.2433 31.8036 23.0956 31.8036 22.9267C31.7191 21.9978 31.4236 21.1956 30.9169 20.52C30.4102 19.8444 29.7769 19.3378 29.0169 19C29.5236 18.4933 29.7769 17.8811 29.7769 17.1633C29.7769 16.4456 29.5236 15.8122 29.0169 15.2633C28.5102 14.7144 27.8769 14.44 27.1169 14.44L26.6102 14.5667C26.1036 13.9756 25.5124 13.5533 24.8369 13.3C25.428 12.7089 25.7236 12.0544 25.7236 11.3367C25.7236 10.6189 25.4491 9.98556 24.9002 9.43667C24.3513 8.88778 23.6969 8.61334 22.9369 8.61334L22.5569 8.74C22.1347 8.14889 21.5858 7.72667 20.9102 7.47334L21.2902 6.96667C23.3169 6.46 24.9636 6.08 26.2302 5.82667C28.0036 5.65778 30.2413 5.53111 32.9436 5.44667ZM14.7036 21.0267C14.1969 20.0978 13.4791 19.4222 12.5502 19C12.888 18.6622 13.0991 18.24 13.1836 17.7333H16.2236C16.308 18.24 16.5613 18.6622 16.9836 19C15.9702 19.4222 15.2102 20.0978 14.7036 21.0267ZM9.13022 17.1C9.13022 16.6778 9.278 16.34 9.57355 16.0867C9.86911 15.8333 10.228 15.7067 10.6502 15.7067C11.0724 15.7067 11.4313 15.8333 11.7269 16.0867C12.0224 16.34 12.1702 16.6778 12.1702 17.1C12.1702 17.5222 12.0224 17.8811 11.7269 18.1767C11.4313 18.4722 11.0724 18.62 10.6502 18.62C10.228 18.62 9.86911 18.4722 9.57355 18.1767C9.278 17.8811 9.13022 17.5222 9.13022 17.1ZM13.1836 11.4C13.1836 10.9778 13.3313 10.6189 13.6269 10.3233C13.9224 10.0278 14.2813 9.88 14.7036 9.88C15.1258 9.88 15.4847 10.0278 15.7802 10.3233C16.0758 10.6189 16.2236 10.9778 16.2236 11.4C16.2236 11.8222 16.0758 12.16 15.7802 12.4133C15.4847 12.6667 15.1258 12.7933 14.7036 12.7933C14.2813 12.7933 13.9224 12.6667 13.6269 12.4133C13.3313 12.16 13.1836 11.8222 13.1836 11.4ZM19.0102 8.23334C19.9391 8.23334 20.7413 8.52889 21.4169 9.12C20.8258 9.54222 20.488 10.0911 20.4036 10.7667H17.3636C17.1947 10.1756 16.8991 9.66889 16.4769 9.24667C17.1524 8.57112 17.9969 8.23334 19.0102 8.23334ZM22.9369 21.0267C22.4302 20.0978 21.7124 19.4222 20.7836 19C21.1213 18.6622 21.3747 18.24 21.5436 17.7333H24.4569C24.6258 18.24 24.8791 18.6622 25.2169 19C24.2036 19.4222 23.4436 20.0978 22.9369 21.0267ZM18.8836 18.62C18.4613 18.62 18.1024 18.4722 17.8069 18.1767C17.5113 17.8811 17.3636 17.5222 17.3636 17.1C17.3636 16.6778 17.5113 16.34 17.8069 16.0867C18.1024 15.8333 18.4613 15.7067 18.8836 15.7067C19.3058 15.7067 19.6647 15.8333 19.9602 16.0867C20.2558 16.34 20.4036 16.6778 20.4036 17.1C20.4036 17.5222 20.2558 17.8811 19.9602 18.1767C19.6647 18.4722 19.3058 18.62 18.8836 18.62ZM16.6036 13.3C17.0258 12.8778 17.2791 12.4133 17.3636 11.9067H18.3769V14.44V14.5667C17.8702 13.9756 17.2791 13.5533 16.6036 13.3ZM20.4036 11.9067C20.488 12.4133 20.6991 12.8778 21.0369 13.3C20.5302 13.5533 20.0658 13.8911 19.6436 14.3133V11.9067H20.4036ZM27.1169 19.8867C27.8769 19.8867 28.5736 20.1189 29.2069 20.5833C29.8402 21.0478 30.2836 21.6178 30.5369 22.2933H23.6969C23.9502 21.6178 24.3936 21.0478 25.0269 20.5833C25.6602 20.1189 26.3569 19.8867 27.1169 19.8867ZM27.1169 18.62C26.6947 18.62 26.3358 18.4722 26.0402 18.1767C25.7447 17.8811 25.5969 17.5222 25.5969 17.1C25.5969 16.6778 25.7447 16.34 26.0402 16.0867C26.3358 15.8333 26.6947 15.7067 27.1169 15.7067C27.5391 15.7067 27.898 15.8333 28.1936 16.0867C28.4891 16.34 28.6369 16.6778 28.6369 17.1C28.6369 17.5222 28.4891 17.8811 28.1936 18.1767C27.898 18.4722 27.5391 18.62 27.1169 18.62ZM24.4569 16.5933H21.5436C21.3747 15.9178 21.0369 15.4111 20.5302 15.0733C21.2058 14.3978 22.0291 14.06 23.0002 14.06C23.9713 14.06 24.7947 14.3978 25.4702 15.0733C24.9636 15.4111 24.6258 15.9178 24.4569 16.5933ZM22.9369 12.7933C22.5147 12.7933 22.1558 12.6667 21.8602 12.4133C21.5647 12.16 21.4169 11.8222 21.4169 11.4C21.4169 10.9778 21.5647 10.6189 21.8602 10.3233C22.1558 10.0278 22.5147 9.88 22.9369 9.88C23.3591 9.88 23.718 10.0278 24.0136 10.3233C24.3091 10.6189 24.4569 10.9778 24.4569 11.4C24.4569 11.8222 24.3091 12.16 24.0136 12.4133C23.718 12.6667 23.3591 12.7933 22.9369 12.7933ZM17.2369 15.0733C16.7302 15.4111 16.3924 15.9178 16.2236 16.5933H13.1836C13.0991 15.9178 12.8036 15.4111 12.2969 15.0733C12.9724 14.3978 13.7958 14.06 14.7669 14.06C15.738 14.06 16.5613 14.3978 17.2369 15.0733ZM10.6502 19.8867C11.4102 19.8867 12.1069 20.1189 12.7402 20.5833C13.3736 21.0478 13.8169 21.6178 14.0702 22.2933H7.23022C7.48355 21.6178 7.90578 21.0478 8.49689 20.5833C9.088 20.1189 9.80578 19.8867 10.6502 19.8867ZM18.8836 19.8867C19.6436 19.8867 20.3402 20.1189 20.9736 20.5833C21.6069 21.0478 22.0502 21.6178 22.3036 22.2933H15.4636C15.7169 21.6178 16.1391 21.0478 16.7302 20.5833C17.3213 20.1189 18.0391 19.8867 18.8836 19.8867ZM19.0102 4.05334C19.4324 4.05334 19.7913 4.20111 20.0869 4.49667C20.3824 4.79223 20.5302 5.15112 20.5302 5.57334C20.5302 5.99556 20.3824 6.35445 20.0869 6.65C19.7913 6.94556 19.4324 7.09334 19.0102 7.09334C18.588 7.09334 18.2291 6.94556 17.9336 6.65C17.638 6.35445 17.4902 5.99556 17.4902 5.57334C17.4902 5.15112 17.638 4.79223 17.9336 4.49667C18.2291 4.20111 18.588 4.05334 19.0102 4.05334ZM5.07689 5.44667C7.77911 5.53111 10.0169 5.65778 11.7902 5.82667C13.0569 6.08 14.7036 6.46 16.7302 6.96667L17.1102 7.47334C16.4347 7.72667 15.8436 8.14889 15.3369 8.74C15.168 8.65556 14.9569 8.61334 14.7036 8.61334C13.9436 8.61334 13.3102 8.88778 12.8036 9.43667C12.2969 9.98556 12.0436 10.6189 12.0436 11.3367C12.0436 12.0544 12.2969 12.7089 12.8036 13.3C12.128 13.5533 11.5791 13.9756 11.1569 14.5667L10.6502 14.44C9.89022 14.44 9.23578 14.7144 8.68689 15.2633C8.138 15.8122 7.86355 16.4456 7.86355 17.1633C7.86355 17.8811 8.15911 18.4933 8.75022 19C7.99022 19.3378 7.35689 19.8444 6.85022 20.52C6.34355 21.1956 6.00578 21.9978 5.83689 22.9267C5.83689 23.0956 5.90022 23.2433 6.02689 23.37C6.15355 23.4967 6.30133 23.56 6.47022 23.56H18.3769V31.4133C15.2524 29.8933 10.8191 29.1333 5.07689 29.1333V5.44667ZM36.2369 32.0467H21.6702C21.5013 32.0467 21.3536 32.11 21.2269 32.2367C21.1002 32.3633 21.0369 32.4689 21.0369 32.5533V33.1867C21.0369 33.44 20.9736 33.63 20.8469 33.7567C20.7202 33.8833 20.5302 33.9467 20.2769 33.9467H17.7436C17.5747 33.9467 17.4058 33.8833 17.2369 33.7567C17.068 33.63 16.9836 33.44 16.9836 33.1867V32.5533C16.9836 32.4689 16.9202 32.3633 16.7936 32.2367C16.6669 32.11 16.5613 32.0467 16.4769 32.0467H1.78355V7.6H3.93689V29.64C3.93689 29.8089 4.00022 29.9567 4.12689 30.0833C4.25355 30.21 4.40133 30.2733 4.57022 30.2733C10.9036 30.2733 15.6324 31.16 18.7569 32.9333C18.8413 33.0178 18.9258 33.06 19.0102 33.06C19.0947 33.06 19.1791 33.0178 19.2636 32.9333C22.388 31.16 27.1169 30.2733 33.4502 30.2733C33.6191 30.2733 33.7669 30.21 33.8936 30.0833C34.0202 29.9567 34.0836 29.8089 34.0836 29.64V7.6H36.2369V32.0467ZM31.0436 25.5867C31.0436 25.7556 30.9802 25.9033 30.8536 26.03C30.7269 26.1567 30.5791 26.22 30.4102 26.22C27.2013 26.3889 24.4991 26.8111 22.3036 27.4867H22.0502C21.7969 27.4867 21.628 27.3811 21.5436 27.17C21.4591 26.9589 21.4591 26.79 21.5436 26.6633C21.628 26.5367 21.7547 26.4311 21.9236 26.3467C24.288 25.6711 27.1169 25.2489 30.4102 25.08C30.5791 25.08 30.7058 25.1222 30.7902 25.2067C30.8747 25.2911 30.9591 25.4178 31.0436 25.5867ZM16.4769 27.1067C16.3924 27.36 16.2236 27.4867 15.9702 27.4867H15.7169C13.5213 26.8111 10.8191 26.3889 7.61022 26.22C7.44133 26.22 7.29355 26.1567 7.16689 26.03C7.04022 25.9033 6.998 25.7556 7.04022 25.5867C7.08244 25.4178 7.14578 25.2911 7.23022 25.2067C7.31467 25.1222 7.44133 25.08 7.61022 25.08C10.9036 25.2489 13.7324 25.6711 16.0969 26.3467C16.2658 26.4311 16.3924 26.5367 16.4769 26.6633C16.5613 26.79 16.5613 26.9378 16.4769 27.1067Z" fill="#0E2A46"/>
</svg>
