<svg width="39" height="38" viewBox="0 0 39 38" fill="none" xmlns="http://www.w3.org/2000/svg">
<g clip-path="url(#clip0_2_2243)">
<path d="M32.6901 35.34C32.1834 32.8067 31.719 30.4844 31.2967 28.3733L31.0434 27.2333C30.7901 26.0511 30.1567 25.2067 29.1434 24.7C28.8901 24.5311 28.6367 24.4044 28.3834 24.32L24.0767 22.8L22.6834 21.9133V20.7733C23.6967 20.1822 24.499 19.4011 25.0901 18.43C25.6812 17.4589 26.0612 16.4244 26.2301 15.3267C27.0745 15.3267 27.729 15.01 28.1934 14.3767C28.6579 13.7433 28.7212 13.0467 28.3834 12.2867V7.85333C28.3834 6.41778 28.0456 5.23556 27.3701 4.30667C27.0323 3.8 26.5679 3.42 25.9767 3.16667C24.7101 1.56222 22.979 0.57 20.7834 0.189999C18.5879 -0.189999 16.519 0.084446 14.5767 1.01333C13.9856 1.35111 13.3945 1.77333 12.8034 2.28C12.719 2.36444 12.6556 2.49111 12.6134 2.66C12.5712 2.82889 12.6134 2.95555 12.7401 3.04C12.8667 3.12444 12.9934 3.18778 13.1201 3.23C13.2467 3.27222 13.3945 3.20889 13.5634 3.04C14.7456 2.11111 16.0967 1.52 17.6167 1.26667C19.1367 1.01333 20.5723 1.14 21.9234 1.64667C23.2745 2.15334 24.3723 2.91333 25.2167 3.92667C25.3012 4.01111 25.3856 4.05333 25.4701 4.05333C25.8079 4.22222 26.1034 4.47556 26.3567 4.81334C26.9479 5.57333 27.2434 6.58667 27.2434 7.85333V11.2733C26.9056 11.1889 26.5679 11.1467 26.2301 11.1467V9.24667C26.2301 9.07778 26.1456 8.90889 25.9767 8.74C25.8079 8.57111 25.639 8.44444 25.4701 8.36C24.7101 8.36 24.119 7.98 23.6967 7.22C23.5279 6.88222 23.2745 6.69222 22.9367 6.65C22.599 6.60778 22.3034 6.71333 22.0501 6.96667C20.8679 7.89556 19.559 8.48667 18.1234 8.74C17.0256 8.99333 15.8856 9.03556 14.7034 8.86667C13.9434 8.78222 13.2679 8.95111 12.6767 9.37333C12.0856 9.79556 11.7479 10.3867 11.6634 11.1467C11.2412 11.1467 10.8612 11.1889 10.5234 11.2733V10.64C10.5234 9.45778 10.5656 8.57111 10.6501 7.98C10.9034 6.88222 11.3256 5.86889 11.9167 4.94C12.0012 4.77111 12.0223 4.62333 11.9801 4.49667C11.9379 4.37 11.8534 4.26445 11.7267 4.18C11.6001 4.09555 11.4734 4.07444 11.3467 4.11667C11.2201 4.15889 11.1145 4.22222 11.0301 4.30667C10.2701 5.40445 9.80563 6.58667 9.63674 7.85333C9.46786 8.61333 9.42563 9.62667 9.51008 10.8933L9.38341 12.2867C9.04563 13.0467 9.13008 13.7433 9.63674 14.3767C10.1434 15.01 10.819 15.3267 11.6634 15.3267C11.8323 16.9311 12.4656 18.3244 13.5634 19.5067L13.6901 19.6333C14.1967 20.14 14.7456 20.5622 15.3367 20.9V21.9133L13.9434 22.8L10.9034 23.94C9.63674 24.3622 8.91897 24.6156 8.75008 24.7L8.62341 24.8267C7.77897 25.3333 7.23008 26.0511 6.97674 26.98L5.33008 35.34C5.33008 35.5933 5.33008 35.8467 5.33008 36.1C5.41452 36.6911 5.64674 37.1556 6.02674 37.4933C6.40674 37.8311 6.93452 38 7.61008 38H22.9367C23.1056 38 23.2323 37.9367 23.3167 37.81C23.4012 37.6833 23.4434 37.5567 23.4434 37.43C23.4434 37.3033 23.4012 37.1767 23.3167 37.05C23.2323 36.9233 23.1056 36.86 22.9367 36.86H11.5367V31.7933C11.5367 31.6244 11.4734 31.4978 11.3467 31.4133C11.2201 31.3289 11.0934 31.2867 10.9667 31.2867C10.8401 31.2867 10.7134 31.3289 10.5867 31.4133C10.4601 31.4978 10.3967 31.6244 10.3967 31.7933V36.86H7.61008C6.68119 36.86 6.30119 36.4378 6.47008 35.5933L7.73674 29.0067C7.99008 27.8244 8.15897 27.1489 8.24341 26.98V26.8533C8.49674 26.2622 8.96119 25.7978 9.63674 25.46L12.0434 24.7L13.4367 27.1067C13.4367 27.2756 13.5212 27.3811 13.6901 27.4233C13.859 27.4656 14.0067 27.4444 14.1334 27.36C14.2601 27.2756 14.3445 27.17 14.3867 27.0433C14.429 26.9167 14.4079 26.7689 14.3234 26.6L13.0567 24.32L13.9434 24.0667L18.3767 32.3C18.5456 32.4689 18.7567 32.5533 19.0101 32.5533C19.2634 32.5533 19.4323 32.4689 19.5167 32.3L24.0767 24.0667L24.9634 24.32L20.4034 32.68C20.0656 33.1867 19.6012 33.44 19.0101 33.44C18.419 33.44 17.9545 33.1867 17.6167 32.68L15.5901 28.88C15.5056 28.7956 15.4001 28.7322 15.2734 28.69C15.1467 28.6478 14.999 28.6478 14.8301 28.69C14.6612 28.7322 14.5556 28.8378 14.5134 29.0067C14.4712 29.1756 14.4923 29.3022 14.5767 29.3867L16.6034 33.1867C16.9412 33.7778 17.4267 34.1789 18.0601 34.39C18.6934 34.6011 19.3267 34.6011 19.9601 34.39C20.5934 34.1789 21.079 33.7778 21.4167 33.1867L25.9767 24.7L28.1301 25.46L29.0167 25.84C29.439 26.2622 29.7345 26.7267 29.9034 27.2333L31.5501 35.8467C31.6345 36.5222 31.2545 36.86 30.4101 36.86H27.6234V31.7933C27.6234 31.6244 27.5601 31.4978 27.4334 31.4133C27.3067 31.3289 27.1801 31.2867 27.0534 31.2867C26.9267 31.2867 26.8001 31.3289 26.6734 31.4133C26.5467 31.4978 26.4834 31.6244 26.4834 31.7933V36.86H25.4701C25.3012 36.86 25.1745 36.9233 25.0901 37.05C25.0056 37.1767 24.9634 37.3033 24.9634 37.43C24.9634 37.5567 25.0056 37.6833 25.0901 37.81C25.1745 37.9367 25.3012 38 25.4701 38H30.4101C31.0856 38 31.6134 37.8311 31.9934 37.4933C32.3734 37.1556 32.6056 36.6911 32.6901 36.1C32.6901 35.8467 32.6901 35.5933 32.6901 35.34ZM26.2301 12.2867C26.5679 12.2022 26.8634 12.2656 27.1167 12.4767C27.3701 12.6878 27.4967 12.9411 27.4967 13.2367C27.4967 13.5322 27.3701 13.7644 27.1167 13.9333C26.8634 14.1022 26.5679 14.1867 26.2301 14.1867V12.2867ZM11.5367 14.1867C11.199 14.1867 10.9245 14.1022 10.7134 13.9333C10.5023 13.7644 10.3967 13.5322 10.3967 13.2367C10.3967 12.9411 10.5023 12.6878 10.7134 12.4767C10.9245 12.2656 11.199 12.2022 11.5367 12.2867V14.1867ZM14.5767 10.0067C15.9279 10.1756 17.1945 10.1333 18.3767 9.88C19.9812 9.54222 21.4167 8.82445 22.6834 7.72667C23.2745 8.74 24.0767 9.33111 25.0901 9.5V11.5267L24.4567 11.9067C24.2034 11.4844 23.8234 11.2733 23.3167 11.2733H20.7834C20.4456 11.2733 20.1712 11.3367 19.9601 11.4633C19.749 11.59 19.559 11.8222 19.3901 12.16H18.3767C18.2923 11.8222 18.1234 11.59 17.8701 11.4633C17.6167 11.3367 17.3634 11.2733 17.1101 11.2733H14.4501C13.9434 11.2733 13.5634 11.4844 13.3101 11.9067L12.6767 11.5267C12.6767 11.02 12.8667 10.6189 13.2467 10.3233C13.6267 10.0278 14.0701 9.92222 14.5767 10.0067ZM23.6967 12.6667V13.8067C23.6967 14.06 23.6123 14.2711 23.4434 14.44C23.2745 14.6089 23.0634 14.6933 22.8101 14.6933H21.2901C21.0367 14.6933 20.8256 14.6089 20.6567 14.44C20.4879 14.2711 20.4034 14.06 20.4034 13.8067V12.6667C20.4034 12.4133 20.5301 12.2867 20.7834 12.2867H23.3167C23.5701 12.2867 23.6967 12.4133 23.6967 12.6667ZM17.3634 12.6667V13.8067C17.3634 14.06 17.279 14.2711 17.1101 14.44C16.9412 14.6089 16.7301 14.6933 16.4767 14.6933H15.0834C14.8301 14.6933 14.619 14.6089 14.4501 14.44C14.2812 14.2711 14.1967 14.06 14.1967 13.8067V12.6667C14.1967 12.4133 14.2812 12.2867 14.4501 12.2867H17.1101C17.279 12.2867 17.3634 12.4133 17.3634 12.6667ZM14.1967 18.62C13.5212 17.7756 13.0567 16.8889 12.8034 15.96C12.719 15.3689 12.6767 14.5667 12.6767 13.5533V12.7933L13.0567 13.0467V13.8067C13.0567 14.3133 13.2467 14.7567 13.6267 15.1367C14.0067 15.5167 14.4923 15.7067 15.0834 15.7067H16.4767C17.0679 15.7067 17.5534 15.5167 17.9334 15.1367C18.3134 14.7567 18.5034 14.3133 18.5034 13.8067V13.1733H19.2634V13.8067C19.2634 14.3133 19.4745 14.7567 19.8967 15.1367C20.319 15.5167 20.7834 15.7067 21.2901 15.7067H22.8101C23.3167 15.7067 23.7601 15.5167 24.1401 15.1367C24.5201 14.7567 24.7101 14.3133 24.7101 13.8067V13.0467L25.0901 12.7933V14.44C25.0901 16.1289 24.499 17.5856 23.3167 18.81C22.1345 20.0344 20.6567 20.6889 18.8834 20.7733C18.4612 20.7733 18.039 20.7311 17.6167 20.6467L17.2367 20.52C16.0545 20.1822 15.0412 19.5489 14.1967 18.62ZM19.0101 24.8267L16.4767 21.9133V21.4067C17.659 21.8289 18.8412 21.9556 20.0234 21.7867L20.7834 21.5333L21.5434 21.4067V21.9133L19.0101 24.8267ZM19.6434 26.7267L19.3901 27.2333H18.6301L18.3767 26.7267L19.0101 26.3467L19.6434 26.7267ZM17.4901 28.2467L17.2367 27.6133L17.4901 27.4867L17.7434 27.8667L17.4901 28.2467ZM16.6034 26.6L14.9567 23.56L15.8434 22.9267L18.1234 25.5867L16.6034 26.6ZM19.0101 31.0333L18.2501 29.64L18.6301 28.3733H19.3901L19.7701 29.64L19.0101 31.0333ZM20.5301 28.2467L20.2767 27.8667L20.5301 27.4867L20.7834 27.6133L20.5301 28.2467ZM21.4167 26.6C20.9945 26.3467 20.4879 26.0089 19.8967 25.5867L22.1767 22.9267L23.0634 23.56L21.4167 26.6Z" fill="#0E2A46"/>
</g>
<defs>
<clipPath id="clip0_2_2243">
<rect width="38.02" height="38" fill="white" transform="matrix(1 0 0 -1 0 38)"/>
</clipPath>
</defs>
</svg>
