<svg width="39" height="38" viewBox="0 0 39 38" fill="none" xmlns="http://www.w3.org/2000/svg">
<path d="M31.55 23.94C31.9723 23.4334 32.31 22.8423 32.5634 22.1667C32.8167 21.4911 32.9434 20.8156 32.9434 20.14C32.9434 19.0423 32.5634 18.1134 31.8034 17.3534C31.0434 16.5934 30.1145 16.2134 29.0167 16.2134C27.9189 16.2134 26.99 16.5934 26.23 17.3534C25.47 18.1134 25.09 19.0634 25.09 20.2034C25.09 21.3434 25.3856 22.3778 25.9767 23.3067L26.3567 23.94C25.4278 23.94 24.5834 24.2356 23.8234 24.8267C23.4856 24.7423 23.1478 24.7 22.81 24.7H22.1767C22.5989 24.3623 22.9367 23.94 23.19 23.4334C24.0345 22.0823 24.4567 20.52 24.4567 18.7467C24.4567 17.8178 24.2245 16.9311 23.76 16.0867C23.2956 15.2423 22.6411 14.5667 21.7967 14.06C20.9523 13.5534 20.0234 13.3 19.01 13.3C17.9967 13.3 17.0678 13.5534 16.2234 14.06C15.3789 14.5667 14.7245 15.2423 14.26 16.0867C13.7956 16.9311 13.5634 17.8178 13.5634 18.7467C13.5634 20.52 13.9856 22.0823 14.83 23.4334C15.0834 23.8556 15.4212 24.2778 15.8434 24.7H15.21C14.8723 24.7 14.5345 24.7423 14.1967 24.8267C13.4367 24.2356 12.5923 23.94 11.6634 23.94L12.0434 23.3067C12.6345 22.3778 12.93 21.3434 12.93 20.2034C12.93 19.0634 12.55 18.1134 11.79 17.3534C11.03 16.5934 10.1012 16.2134 9.00337 16.2134C7.90559 16.2134 6.97671 16.5934 6.21671 17.3534C5.45671 18.1134 5.07671 19.0423 5.07671 20.14C5.07671 20.8156 5.20337 21.4911 5.45671 22.1667C5.71004 22.8423 6.04782 23.4334 6.47004 23.94C5.28782 23.94 4.29559 24.32 3.49337 25.08C2.69115 25.84 2.29004 26.7689 2.29004 27.8667V32.4267C2.29004 32.5956 2.33226 32.7434 2.41671 32.87C2.50115 32.9967 2.62782 33.06 2.79671 33.06H9.38337V36.86C9.38337 37.0289 9.44671 37.1556 9.57337 37.24C9.70004 37.3245 9.84782 37.3667 10.0167 37.3667H28.0034C28.1723 37.3667 28.32 37.3245 28.4467 37.24C28.5734 37.1556 28.6367 37.0289 28.6367 36.86V33.06H35.2234C35.3923 33.06 35.5189 32.9967 35.6034 32.87C35.6878 32.7434 35.73 32.5956 35.73 32.4267V27.8667C35.73 26.7689 35.3289 25.84 34.5267 25.08C33.7245 24.32 32.7323 23.94 31.55 23.94ZM26.23 20.14C26.23 19.38 26.5045 18.7256 27.0534 18.1767C27.6023 17.6278 28.2567 17.3534 29.0167 17.3534C29.7767 17.3534 30.4312 17.6278 30.98 18.1767C31.5289 18.7256 31.8034 19.4223 31.8034 20.2667C31.8034 21.1111 31.5923 21.8711 31.17 22.5467C30.6634 23.4756 29.9456 23.94 29.0167 23.94C28.0878 23.94 27.37 23.4756 26.8634 22.5467C26.4412 21.8711 26.23 21.0689 26.23 20.14ZM19.01 14.5667C20.1923 14.5667 21.2056 14.9678 22.05 15.77C22.8945 16.5723 23.3167 17.5645 23.3167 18.7467V18.8734C22.3878 18.7889 21.5856 18.62 20.91 18.3667C20.0656 18.0289 19.1789 17.5223 18.25 16.8467C18.0812 16.6778 17.87 16.6778 17.6167 16.8467L14.7034 18.4934C14.7878 17.3956 15.2523 16.4667 16.0967 15.7067C16.9411 14.9467 17.9123 14.5667 19.01 14.5667ZM15.8434 22.8C15.3367 21.9556 14.9989 20.9845 14.83 19.8867L17.87 17.9867C18.7989 18.6623 19.7278 19.1689 20.6567 19.5067C21.3323 19.76 22.1767 19.9711 23.19 20.14C23.0212 21.1534 22.6834 22.04 22.1767 22.8C21.4167 24.0667 20.3612 24.7 19.01 24.7C17.6589 24.7 16.6034 24.0667 15.8434 22.8ZM6.21671 20.14C6.21671 19.38 6.49115 18.7256 7.04004 18.1767C7.58893 17.6278 8.24337 17.3534 9.00337 17.3534C9.76337 17.3534 10.4178 17.6278 10.9667 18.1767C11.5156 18.7256 11.79 19.4223 11.79 20.2667C11.79 21.1111 11.5789 21.8711 11.1567 22.5467C10.65 23.4756 9.93226 23.94 9.00337 23.94C8.07448 23.94 7.35671 23.4756 6.85004 22.5467C6.42782 21.8711 6.21671 21.0689 6.21671 20.14ZM3.43004 31.92V27.8667C3.43004 27.1067 3.72559 26.4734 4.31671 25.9667C4.90782 25.46 5.62559 25.2067 6.47004 25.2067H11.6634C12.0012 25.2067 12.2967 25.2489 12.55 25.3334C11.6212 25.7556 10.8611 26.41 10.27 27.2967C9.67893 28.1834 9.38337 29.1334 9.38337 30.1467V31.92H3.43004ZM27.4967 36.2267H24.4567V32.5534C24.4567 32.3845 24.3934 32.2367 24.2667 32.11C24.14 31.9834 23.9923 31.92 23.8234 31.92C23.6545 31.92 23.5278 31.9834 23.4434 32.11C23.3589 32.2367 23.3167 32.3845 23.3167 32.5534V36.2267H14.7034V32.5534C14.7034 32.3845 14.6611 32.2367 14.5767 32.11C14.4923 31.9834 14.3656 31.92 14.1967 31.92C14.0278 31.92 13.88 31.9834 13.7534 32.11C13.6267 32.2367 13.5634 32.3845 13.5634 32.5534V36.2267H10.5234V30.1467C10.5234 28.9645 10.9878 27.9511 11.9167 27.1067C12.8456 26.2623 13.9434 25.84 15.21 25.84H22.81C24.0767 25.84 25.1745 26.2623 26.1034 27.1067C27.0323 27.9511 27.4967 28.9645 27.4967 30.1467V36.2267ZM34.59 31.92H28.6367V30.1467C28.6367 29.1334 28.3412 28.1834 27.75 27.2967C27.1589 26.41 26.3989 25.7556 25.47 25.3334C25.7234 25.2489 26.0189 25.2067 26.3567 25.2067H31.55C32.3945 25.2067 33.1123 25.46 33.7034 25.9667C34.2945 26.4734 34.59 27.1067 34.59 27.8667V31.92ZM15.7167 7.7267L15.21 10.8934C15.21 11.1467 15.2945 11.3367 15.4634 11.4634C15.6323 11.59 15.8434 11.6111 16.0967 11.5267L19.01 10.0067L21.9234 11.5267C22.1767 11.6111 22.3878 11.59 22.5567 11.4634C22.7256 11.3367 22.81 11.1467 22.81 10.8934L22.3034 7.7267L24.5834 5.32003C24.7523 5.15115 24.7945 4.96114 24.71 4.75003C24.6256 4.53892 24.4567 4.39114 24.2034 4.3067L21.0367 3.80003L19.5167 0.8867C19.4323 0.717812 19.2634 0.633366 19.01 0.633366C18.7567 0.633366 18.5878 0.717812 18.5034 0.8867L16.9834 3.80003L13.8167 4.3067C13.5634 4.39114 13.3945 4.53892 13.31 4.75003C13.2256 4.96114 13.2678 5.15115 13.4367 5.32003L15.7167 7.7267ZM17.49 4.94003C17.6589 4.85559 17.7856 4.72892 17.87 4.56003L19.01 2.4067L20.15 4.56003C20.2345 4.72892 20.3612 4.85559 20.53 4.94003L22.9367 5.32003L21.29 7.09337C21.1211 7.17781 21.0367 7.3467 21.0367 7.60003L21.4167 9.88003L19.2634 8.8667C19.0945 8.78226 18.9256 8.78226 18.7567 8.8667L16.6034 9.88003L16.9834 7.60003C16.9834 7.3467 16.8989 7.17781 16.73 7.09337L15.0834 5.32003L17.49 4.94003ZM4.69671 8.61337L4.31671 10.8934C4.31671 11.1467 4.42226 11.3367 4.63337 11.4634C4.84448 11.59 5.03448 11.6111 5.20337 11.5267L7.23004 10.5134L9.25671 11.5267C9.42559 11.6111 9.61559 11.59 9.82671 11.4634C10.0378 11.3367 10.1434 11.1467 10.1434 10.8934L9.76337 8.61337L11.2834 7.09337C11.4523 6.92448 11.5156 6.71337 11.4734 6.46003C11.4312 6.2067 11.2834 6.08003 11.03 6.08003L8.75004 5.70003L7.73671 3.67337C7.65226 3.50448 7.48337 3.42003 7.23004 3.42003C6.97671 3.42003 6.80782 3.50448 6.72337 3.67337L5.71004 5.70003L3.43004 6.08003C3.17671 6.08003 3.02893 6.2067 2.98671 6.46003C2.94448 6.71337 3.00782 6.92448 3.17671 7.09337L4.69671 8.61337ZM6.09004 6.84003C6.34337 6.75559 6.51226 6.62892 6.59671 6.46003L7.23004 5.19337L7.86337 6.46003C7.94782 6.62892 8.07448 6.75559 8.24337 6.84003L9.63671 7.09337L8.75004 8.1067C8.58115 8.19114 8.49671 8.31781 8.49671 8.4867L8.75004 9.88003L7.48337 9.37337C7.31448 9.28892 7.14559 9.28892 6.97671 9.37337L5.71004 9.88003L5.96337 8.4867C5.96337 8.31781 5.87893 8.19114 5.71004 8.1067L4.82337 7.09337L6.09004 6.84003ZM28.2567 8.61337L27.8767 10.8934C27.8767 11.1467 27.9823 11.3367 28.1934 11.4634C28.4045 11.59 28.5945 11.6111 28.7634 11.5267L30.79 10.5134L32.8167 11.5267C32.9856 11.6111 33.1756 11.59 33.3867 11.4634C33.5978 11.3367 33.7034 11.1467 33.7034 10.8934L33.3234 8.61337L34.8434 7.09337C35.0123 6.92448 35.0756 6.71337 35.0334 6.46003C34.9911 6.2067 34.8434 6.08003 34.59 6.08003L32.31 5.70003L31.2967 3.67337C31.2123 3.50448 31.0434 3.42003 30.79 3.42003C30.5367 3.42003 30.3678 3.50448 30.2834 3.67337L29.27 5.70003L26.99 6.08003C26.7367 6.08003 26.5889 6.2067 26.5467 6.46003C26.5045 6.71337 26.5678 6.92448 26.7367 7.09337L28.2567 8.61337ZM29.7767 6.84003C29.9456 6.75559 30.0723 6.62892 30.1567 6.46003L30.79 5.19337L31.4234 6.46003C31.5078 6.62892 31.6767 6.75559 31.93 6.84003L33.1967 7.09337L32.31 8.1067C32.1411 8.19114 32.0567 8.31781 32.0567 8.4867L32.31 9.88003L31.0434 9.37337C30.8745 9.28892 30.7056 9.28892 30.5367 9.37337L29.27 9.88003L29.5234 8.4867C29.5234 8.31781 29.4389 8.19114 29.27 8.1067L28.3834 7.09337L29.7767 6.84003Z" fill="#0E2A46"/>
</svg>
